<svg xmlns="http://www.w3.org/2000/svg" viewBox="0 0 1024 1024" role="img" aria-labelledby="title desc">
  <title id="title">Symmetry and Material Information</title>
  <desc id="desc">A blue flowing W with softly rounded peaks and troughs, extending to the edges of a dark navy circle.</desc>
  <defs><clipPath id="disc"><circle cx="512" cy="512" r="512"/></clipPath></defs>
  <circle cx="512" cy="512" r="512" fill="#080b14"/>
  <path d="M 0.000000 302.000000 C 2.666667 302.000000 5.333333 303.047429 8.000000 304.936206 C 10.666667 306.824982 13.333333 309.527481 16.000000 312.712821 C 18.666667 315.898162 21.333333 319.562231 24.000000 323.487392 C 26.666667 327.412554 29.333333 331.602272 32.000000 335.940418 C 34.666667 340.278565 37.333333 344.767632 40.000000 349.346414 C 42.666667 353.925195 45.333333 358.594940 48.000000 363.321914 C 50.666667 368.048888 53.333333 372.833692 56.000000 377.656654 C 58.666667 382.479616 61.333333 387.341033 64.000000 392.228791 C 66.666667 397.116549 69.333333 402.030801 72.000000 406.963700 C 74.666667 411.896600 77.333333 416.848231 80.000000 421.813272 C 82.666667 426.778312 85.333333 431.756810 88.000000 436.744991 C 90.666667 441.733173 93.333333 446.731066 96.000000 451.735874 C 98.666667 456.740681 101.333333 461.752421 104.000000 466.768916 C 106.666667 471.785412 109.333333 476.806676 112.000000 481.830922 C 114.666667 486.855169 117.333333 491.882408 120.000000 496.911085 C 122.666667 501.939761 125.333333 506.969882 128.000000 512.000000 C 130.666667 517.030118 133.333333 522.060239 136.000000 527.088915 C 138.666667 532.117592 141.333333 537.144831 144.000000 542.169078 C 146.666667 547.193324 149.333333 552.214588 152.000000 557.231084 C 154.666667 562.247579 157.333333 567.259319 160.000000 572.264126 C 162.666667 577.268934 165.333333 582.266827 168.000000 587.255009 C 170.666667 592.243190 173.333333 597.221688 176.000000 602.186728 C 178.666667 607.151769 181.333333 612.103400 184.000000 617.036300 C 186.666667 621.969199 189.333333 626.883451 192.000000 631.771209 C 194.666667 636.658967 197.333333 641.520384 200.000000 646.343346 C 202.666667 651.166308 205.333333 655.951112 208.000000 660.678086 C 210.666667 665.405060 213.333333 670.074805 216.000000 674.653586 C 218.666667 679.232368 221.333333 683.721435 224.000000 688.059582 C 226.666667 692.397728 229.333333 696.587446 232.000000 700.512608 C 234.666667 704.437769 237.333333 708.101838 240.000000 711.287179 C 242.666667 714.472519 245.333333 717.175018 248.000000 719.063794 C 250.666667 720.952571 253.333333 722.000000 256.000000 722.000000 C 258.666667 722.000000 261.333333 720.952571 264.000000 719.063794 C 266.666667 717.175018 269.333333 714.472519 272.000000 711.287179 C 274.666667 708.101838 277.333333 704.437769 280.000000 700.512608 C 282.666667 696.587446 285.333333 692.397728 288.000000 688.059582 C 290.666667 683.721435 293.333333 679.232368 296.000000 674.653586 C 298.666667 670.074805 301.333333 665.405060 304.000000 660.678086 C 306.666667 655.951112 309.333333 651.166308 312.000000 646.343346 C 314.666667 641.520384 317.333333 636.658967 320.000000 631.771209 C 322.666667 626.883451 325.333333 621.969199 328.000000 617.036300 C 330.666667 612.103400 333.333333 607.151769 336.000000 602.186728 C 338.666667 597.221688 341.333333 592.243190 344.000000 587.255009 C 346.666667 582.266827 349.333333 577.268934 352.000000 572.264126 C 354.666667 567.259319 357.333333 562.247579 360.000000 557.231084 C 362.666667 552.214588 365.333333 547.193324 368.000000 542.169078 C 370.666667 537.144831 373.333333 532.117592 376.000000 527.088915 C 378.666667 522.060239 381.333333 517.030118 384.000000 512.000000 C 386.666667 506.969882 389.333333 501.939761 392.000000 496.911085 C 394.666667 491.882408 397.333333 486.855169 400.000000 481.830922 C 402.666667 476.806676 405.333333 471.785412 408.000000 466.768916 C 410.666667 461.752421 413.333333 456.740681 416.000000 451.735874 C 418.666667 446.731066 421.333333 441.733173 424.000000 436.744991 C 426.666667 431.756810 429.333333 426.778312 432.000000 421.813272 C 434.666667 416.848231 437.333333 411.896600 440.000000 406.963700 C 442.666667 402.030801 445.333333 397.116549 448.000000 392.228791 C 450.666667 387.341033 453.333333 382.479616 456.000000 377.656654 C 458.666667 372.833692 461.333333 368.048888 464.000000 363.321914 C 466.666667 358.594940 469.333333 353.925195 472.000000 349.346414 C 474.666667 344.767632 477.333333 340.278565 480.000000 335.940418 C 482.666667 331.602272 485.333333 327.412554 488.000000 323.487392 C 490.666667 319.562231 493.333333 315.898162 496.000000 312.712821 C 498.666667 309.527481 501.333333 306.824982 504.000000 304.936206 C 506.666667 303.047429 509.333333 302.000000 512.000000 302.000000 C 514.666667 302.000000 517.333333 303.047429 520.000000 304.936206 C 522.666667 306.824982 525.333333 309.527481 528.000000 312.712821 C 530.666667 315.898162 533.333333 319.562231 536.000000 323.487392 C 538.666667 327.412554 541.333333 331.602272 544.000000 335.940418 C 546.666667 340.278565 549.333333 344.767632 552.000000 349.346414 C 554.666667 353.925195 557.333333 358.594940 560.000000 363.321914 C 562.666667 368.048888 565.333333 372.833692 568.000000 377.656654 C 570.666667 382.479616 573.333333 387.341033 576.000000 392.228791 C 578.666667 397.116549 581.333333 402.030801 584.000000 406.963700 C 586.666667 411.896600 589.333333 416.848231 592.000000 421.813272 C 594.666667 426.778312 597.333333 431.756810 600.000000 436.744991 C 602.666667 441.733173 605.333333 446.731066 608.000000 451.735874 C 610.666667 456.740681 613.333333 461.752421 616.000000 466.768916 C 618.666667 471.785412 621.333333 476.806676 624.000000 481.830922 C 626.666667 486.855169 629.333333 491.882408 632.000000 496.911085 C 634.666667 501.939761 637.333333 506.969882 640.000000 512.000000 C 642.666667 517.030118 645.333333 522.060239 648.000000 527.088915 C 650.666667 532.117592 653.333333 537.144831 656.000000 542.169078 C 658.666667 547.193324 661.333333 552.214588 664.000000 557.231084 C 666.666667 562.247579 669.333333 567.259319 672.000000 572.264126 C 674.666667 577.268934 677.333333 582.266827 680.000000 587.255009 C 682.666667 592.243190 685.333333 597.221688 688.000000 602.186728 C 690.666667 607.151769 693.333333 612.103400 696.000000 617.036300 C 698.666667 621.969199 701.333333 626.883451 704.000000 631.771209 C 706.666667 636.658967 709.333333 641.520384 712.000000 646.343346 C 714.666667 651.166308 717.333333 655.951112 720.000000 660.678086 C 722.666667 665.405060 725.333333 670.074805 728.000000 674.653586 C 730.666667 679.232368 733.333333 683.721435 736.000000 688.059582 C 738.666667 692.397728 741.333333 696.587446 744.000000 700.512608 C 746.666667 704.437769 749.333333 708.101838 752.000000 711.287179 C 754.666667 714.472519 757.333333 717.175018 760.000000 719.063794 C 762.666667 720.952571 765.333333 722.000000 768.000000 722.000000 C 770.666667 722.000000 773.333333 720.952571 776.000000 719.063794 C 778.666667 717.175018 781.333333 714.472519 784.000000 711.287179 C 786.666667 708.101838 789.333333 704.437769 792.000000 700.512608 C 794.666667 696.587446 797.333333 692.397728 800.000000 688.059582 C 802.666667 683.721435 805.333333 679.232368 808.000000 674.653586 C 810.666667 670.074805 813.333333 665.405060 816.000000 660.678086 C 818.666667 655.951112 821.333333 651.166308 824.000000 646.343346 C 826.666667 641.520384 829.333333 636.658967 832.000000 631.771209 C 834.666667 626.883451 837.333333 621.969199 840.000000 617.036300 C 842.666667 612.103400 845.333333 607.151769 848.000000 602.186728 C 850.666667 597.221688 853.333333 592.243190 856.000000 587.255009 C 858.666667 582.266827 861.333333 577.268934 864.000000 572.264126 C 866.666667 567.259319 869.333333 562.247579 872.000000 557.231084 C 874.666667 552.214588 877.333333 547.193324 880.000000 542.169078 C 882.666667 537.144831 885.333333 532.117592 888.000000 527.088915 C 890.666667 522.060239 893.333333 517.030118 896.000000 512.000000 C 898.666667 506.969882 901.333333 501.939761 904.000000 496.911085 C 906.666667 491.882408 909.333333 486.855169 912.000000 481.830922 C 914.666667 476.806676 917.333333 471.785412 920.000000 466.768916 C 922.666667 461.752421 925.333333 456.740681 928.000000 451.735874 C 930.666667 446.731066 933.333333 441.733173 936.000000 436.744991 C 938.666667 431.756810 941.333333 426.778312 944.000000 421.813272 C 946.666667 416.848231 949.333333 411.896600 952.000000 406.963700 C 954.666667 402.030801 957.333333 397.116549 960.000000 392.228791 C 962.666667 387.341033 965.333333 382.479616 968.000000 377.656654 C 970.666667 372.833692 973.333333 368.048888 976.000000 363.321914 C 978.666667 358.594940 981.333333 353.925195 984.000000 349.346414 C 986.666667 344.767632 989.333333 340.278565 992.000000 335.940418 C 994.666667 331.602272 997.333333 327.412554 1000.000000 323.487392 C 1002.666667 319.562231 1005.333333 315.898162 1008.000000 312.712821 C 1010.666667 309.527481 1013.333333 306.824982 1016.000000 304.936206 C 1018.666667 303.047429 1021.333333 302.000000 1024.000000 302.000000" fill="none" stroke="#46beff" stroke-width="26" stroke-linecap="round" stroke-linejoin="round" clip-path="url(#disc)"/>
</svg>
